<svg xmlns="http://www.w3.org/2000/svg" xmlns:xlink="http://www.w3.org/1999/xlink" width="118" height="118" viewBox="0 0 118 118">
  <defs>
    <filter id="Trazado_982547" x="0" y="0" width="118" height="118" filterUnits="userSpaceOnUse">
      <feOffset dy="3" input="SourceAlpha"/>
      <feGaussianBlur stdDeviation="3" result="blur"/>
      <feFlood flood-opacity="0.161"/>
      <feComposite operator="in" in2="blur"/>
      <feComposite in="SourceGraphic"/>
    </filter>
  </defs>
  <g id="Grupo_1225698" data-name="Grupo 1225698" transform="translate(-740.638 -942.048)">
    <g id="Grupo_1208611" data-name="Grupo 1208611" transform="translate(749.638 948.048)">
      <g id="Grupo_1174813" data-name="Grupo 1174813">
        <g id="Grupo_1201680" data-name="Grupo 1201680">
          <g id="Grupo_1201330" data-name="Grupo 1201330">
            <g id="Grupo_1172010" data-name="Grupo 1172010">
              <g id="Grupo_1171046" data-name="Grupo 1171046">
                <g id="Grupo_1148525" data-name="Grupo 1148525">
                  <g transform="matrix(1, 0, 0, 1, -9, -6)" filter="url(#Trazado_982547)">
                    <g id="Trazado_982547-2" data-name="Trazado 982547" transform="translate(9 6)" fill="#fdf4ce">
                      <path d="M 50 98.5 C 43.45188522338867 98.5 37.10042953491211 97.21787261962891 31.12207221984863 94.68923950195312 C 25.34691429138184 92.24655914306641 20.15997123718262 88.74931335449219 15.70532894134521 84.29468536376953 C 11.2506856918335 79.84004211425781 7.753442764282227 74.65309906005859 5.310757160186768 68.8779296875 C 2.782128572463989 62.89957046508789 1.5 56.54811477661133 1.5 50 C 1.5 43.45188522338867 2.782128572463989 37.10042953491211 5.310757160186768 31.12207221984863 C 7.753442764282227 25.34691429138184 11.2506856918335 20.15997123718262 15.70532894134521 15.70532894134521 C 20.15997123718262 11.2506856918335 25.34691429138184 7.753442764282227 31.12207221984863 5.310757160186768 C 37.10042953491211 2.782128572463989 43.45188522338867 1.5 50 1.5 C 56.54811477661133 1.5 62.89957046508789 2.782128572463989 68.8779296875 5.310757160186768 C 74.65309906005859 7.753442764282227 79.84004211425781 11.2506856918335 84.29468536376953 15.70532894134521 C 88.74931335449219 20.15997123718262 92.24655914306641 25.34691429138184 94.68923950195312 31.12207221984863 C 97.21787261962891 37.10042953491211 98.5 43.45188522338867 98.5 50 C 98.5 56.54811477661133 97.21787261962891 62.89957046508789 94.68923950195312 68.8779296875 C 92.24655914306641 74.65309906005859 88.74931335449219 79.84004211425781 84.29468536376953 84.29468536376953 C 79.84004211425781 88.74931335449219 74.65309906005859 92.24655914306641 68.8779296875 94.68923950195312 C 62.89957046508789 97.21787261962891 56.54811477661133 98.5 50 98.5 Z" stroke="none"/>
                      <path d="M 50 3 C 43.65372467041016 3 37.49886322021484 4.242263793945312 31.70639801025391 6.6922607421875 C 26.11003112792969 9.059326171875 21.08335113525391 12.44861602783203 16.76598358154297 16.76598358154297 C 12.44861602783203 21.08335113525391 9.059326171875 26.11003112792969 6.6922607421875 31.70639801025391 C 4.242263793945312 37.49886322021484 3 43.65372467041016 3 50 C 3 56.34627532958984 4.242263793945312 62.50113677978516 6.6922607421875 68.29360198974609 C 9.059326171875 73.88996887207031 12.44861602783203 78.91666412353516 16.76598358154297 83.23401641845703 C 21.08335113525391 87.55138397216797 26.11003112792969 90.940673828125 31.70639801025391 93.3077392578125 C 37.49886322021484 95.75773620605469 43.65372467041016 97 50 97 C 56.34627532958984 97 62.50113677978516 95.75773620605469 68.29360198974609 93.3077392578125 C 73.88996887207031 90.940673828125 78.91666412353516 87.55138397216797 83.23401641845703 83.23401641845703 C 87.55138397216797 78.91666412353516 90.940673828125 73.88996887207031 93.3077392578125 68.29360198974609 C 95.75773620605469 62.50113677978516 97 56.34627532958984 97 50 C 97 43.65372467041016 95.75773620605469 37.49886322021484 93.3077392578125 31.70639801025391 C 90.940673828125 26.11003112792969 87.55138397216797 21.08335113525391 83.23401641845703 16.76598358154297 C 78.91666412353516 12.44861602783203 73.88996887207031 9.059326171875 68.29360198974609 6.6922607421875 C 62.50113677978516 4.242263793945312 56.34627532958984 3 50 3 M 50 0 C 77.61424255371094 0 100 22.38577270507812 100 50 C 100 77.61424255371094 77.61424255371094 100 50 100 C 22.38577270507812 100 0 77.61424255371094 0 50 C 0 22.38577270507812 22.38577270507812 0 50 0 Z" stroke="none" fill="#866d08"/>
                    </g>
                  </g>
                </g>
              </g>
            </g>
          </g>
        </g>
      </g>
    </g>
    <g id="_87-Development" data-name="87-Development" transform="translate(768 966)">
      <path id="Trazado_1213564" data-name="Trazado 1213564" d="M19,59H45v3H19Z" fill="#979faf"/>
      <path id="Trazado_1213565" data-name="Trazado 1213565" d="M40,50l5,9H19l5-9Z" fill="#adb2c7"/>
      <path id="Trazado_1213566" data-name="Trazado 1213566" d="M63,4V42H1V4A2.006,2.006,0,0,1,3,2H61A2.006,2.006,0,0,1,63,4Z" fill="#8dd5f6"/>
      <path id="Trazado_1213567" data-name="Trazado 1213567" d="M63,42v6a2.006,2.006,0,0,1-2,2H3a2.006,2.006,0,0,1-2-2V42Z" fill="#dfe1ea"/>
      <path id="Trazado_1213568" data-name="Trazado 1213568" d="M61,2H3A2.006,2.006,0,0,0,1,4V18.844A26.743,26.743,0,0,0,9.2,20c7.6,0,7.6-2,15.2-2s7.6,2,15.2,2,7.6-2,15.2-2A26.787,26.787,0,0,1,63,19.157V4a2.006,2.006,0,0,0-2-2Z" fill="#aedff7"/>
      <path id="Trazado_1213569" data-name="Trazado 1213569" d="M61,2H3A2.006,2.006,0,0,0,1,4v7.844A26.743,26.743,0,0,0,9.2,13c7.6,0,7.6-2,15.2-2s7.6,2,15.2,2,7.6-2,15.2-2A26.787,26.787,0,0,1,63,12.157V4a2.006,2.006,0,0,0-2-2Z" fill="#f6fafd"/>
      <path id="Trazado_1213570" data-name="Trazado 1213570" d="M24,50l-1.832,3.3A25.289,25.289,0,0,0,28.6,54c6.6,0,7.475-1.507,12.57-1.9L40,50Z" fill="#7e8596"/>
      <path id="Trazado_1213571" data-name="Trazado 1213571" d="M27.073,22.4l-1.717-2.86L19.515,9.8a1.051,1.051,0,0,0-1.8,0L11.7,19.812,10.155,22.4a1.056,1.056,0,0,0,.9,1.6H26.173a1.055,1.055,0,0,0,.9-1.6Z" fill="#0096cf"/>
      <path id="Trazado_1213572" data-name="Trazado 1213572" d="M30,15H51V38H30Z" fill="#dfe1ea"/>
      <path id="Trazado_1213573" data-name="Trazado 1213573" d="M34,10H55V33H34Z" fill="#adb2c7"/>
      <path id="Trazado_1213574" data-name="Trazado 1213574" d="M38,15H58V29H38Z" fill="#fff"/>
      <path id="Trazado_1213575" data-name="Trazado 1213575" d="M38,7H58v8H38Z" fill="#73c6b2"/>
      <path id="Trazado_1213576" data-name="Trazado 1213576" d="M41,18H55v8H41Z" fill="#dfe1ea"/>
      <g id="Grupo_1225697" data-name="Grupo 1225697">
        <path id="Trazado_1213577" data-name="Trazado 1213577" d="M41,10h2v2H41Z" fill="#fff"/>
        <path id="Trazado_1213578" data-name="Trazado 1213578" d="M45,10h2v2H45Z" fill="#fff"/>
        <path id="Trazado_1213579" data-name="Trazado 1213579" d="M11,31h2v2H11Z" fill="#fff"/>
        <path id="Trazado_1213580" data-name="Trazado 1213580" d="M19,31h2v2H19Z" fill="#fff"/>
      </g>
      <path id="Trazado_1213581" data-name="Trazado 1213581" d="M16.86,7.44l5.58,9.3L22,17H9.4l5.74-9.56a1,1,0,0,1,1.72,0Z" fill="#ffb13b"/>
      <path id="Trazado_1213582" data-name="Trazado 1213582" d="M24.08,19.47A1.008,1.008,0,0,1,23.22,21H8.78a1.008,1.008,0,0,1-.86-1.53L9.4,17H22l.44-.26Z" fill="#ffc247"/>
      <path id="Trazado_1213583" data-name="Trazado 1213583" d="M11.779,13.037,9.4,17H22l.44-.26-1.681-2.8A25.388,25.388,0,0,0,13.394,13c-.585,0-1.112.015-1.615.037Z" fill="#f5e3a7"/>
      <path id="Trazado_1213584" data-name="Trazado 1213584" d="M45.293,18.293l-3,3a1,1,0,0,0,0,1.414l3,3,1.414-1.414L44.414,22l2.293-2.293Z"/>
      <path id="Trazado_1213585" data-name="Trazado 1213585" d="M50.707,18.293l-1.414,1.414L51.586,22l-2.293,2.293,1.414,1.414,3-3a1,1,0,0,0,0-1.414Z"/>
      <path id="Trazado_1213586" data-name="Trazado 1213586" d="M61,1H3A3,3,0,0,0,0,4V48a3,3,0,0,0,3,3H22.3l-4.175,7.515A.991.991,0,0,0,18,59v2H16v2H48V61H46V59a.991.991,0,0,0-.126-.485L41.7,51H61a3,3,0,0,0,3-3V4A3,3,0,0,0,61,1ZM3,3H61a1,1,0,0,1,1,1V41H2V4A1,1,0,0,1,3,3ZM20,61V60H44v1Zm23.3-3H20.7l3.889-7H39.412ZM61,49H3a1,1,0,0,1-1-1V43H62v5A1,1,0,0,1,61,49Z"/>
      <path id="Trazado_1213587" data-name="Trazado 1213587" d="M30,39H51a1,1,0,0,0,1-1V34h3a1,1,0,0,0,1-1V30h2a1,1,0,0,0,1-1V7a1,1,0,0,0-1-1H38a1,1,0,0,0-1,1V9H34a1,1,0,0,0-1,1v4H30a1,1,0,0,0-1,1V38A1,1,0,0,0,30,39Zm9-11V16H57V28ZM57,8v6H39V8ZM35,11h2V29a1,1,0,0,0,1,1H54v2H35Zm-4,5h2V33a1,1,0,0,0,1,1H50v3H31Z"/>
      <path id="Trazado_1213588" data-name="Trazado 1213588" d="M24.981,26.194A1,1,0,0,0,24,25H22v2h.865a5.872,5.872,0,0,0,.877,3.977A2.717,2.717,0,0,0,25,31.846v.308a2.717,2.717,0,0,0-1.258.869A5.872,5.872,0,0,0,22.865,37H22v2h2a1,1,0,0,0,.981-1.194c-.163-.827-.3-2.773.309-3.516A.81.81,0,0,1,26,34a1,1,0,0,0,1-1V31a1,1,0,0,0-1-1,.81.81,0,0,1-.71-.29c-.611-.743-.472-2.689-.309-3.516Z"/>
      <path id="Trazado_1213589" data-name="Trazado 1213589" d="M6,34a.81.81,0,0,1,.71.29c.611.743.472,2.689.309,3.516A1,1,0,0,0,8,39h2V37H9.135a5.872,5.872,0,0,0-.877-3.977A2.717,2.717,0,0,0,7,32.154v-.308a2.717,2.717,0,0,0,1.258-.869A5.872,5.872,0,0,0,9.135,27H10V25H8a1,1,0,0,0-.981,1.194c.163.827.3,2.773-.309,3.516A.81.81,0,0,1,6,30a1,1,0,0,0-1,1v2A1,1,0,0,0,6,34Z"/>
      <path id="Trazado_1213590" data-name="Trazado 1213590" d="M15,31h2v2H15Z"/>
      <path id="Trazado_1213591" data-name="Trazado 1213591" d="M8.78,22H23.22a2.007,2.007,0,0,0,1.717-3.045L17.718,6.927a2,2,0,0,0-3.435,0L7.067,18.947A2.008,2.008,0,0,0,8.78,22ZM16,7.955,20.83,16H11.17ZM9.969,18H22v-.046L23.22,20,8.778,19.983Z"/>
    </g>
  </g>
</svg>
