<svg xmlns="http://www.w3.org/2000/svg" xmlns:xlink="http://www.w3.org/1999/xlink" width="118" height="118" viewBox="0 0 118 118">
  <defs>
    <filter id="Trazado_982547" x="0" y="0" width="118" height="118" filterUnits="userSpaceOnUse">
      <feOffset dy="3" input="SourceAlpha"/>
      <feGaussianBlur stdDeviation="3" result="blur"/>
      <feFlood flood-opacity="0.161"/>
      <feComposite operator="in" in2="blur"/>
      <feComposite in="SourceGraphic"/>
    </filter>
  </defs>
  <g id="Grupo_1225696" data-name="Grupo 1225696" transform="translate(-320.888 -942.048)">
    <g id="Grupo_1208610" data-name="Grupo 1208610" transform="translate(329.888 948.048)">
      <g id="Grupo_1174813" data-name="Grupo 1174813">
        <g id="Grupo_1201680" data-name="Grupo 1201680">
          <g id="Grupo_1201330" data-name="Grupo 1201330">
            <g id="Grupo_1172010" data-name="Grupo 1172010">
              <g id="Grupo_1171046" data-name="Grupo 1171046">
                <g id="Grupo_1148525" data-name="Grupo 1148525">
                  <g transform="matrix(1, 0, 0, 1, -9, -6)" filter="url(#Trazado_982547)">
                    <g id="Trazado_982547-2" data-name="Trazado 982547" transform="translate(9 6)" fill="#fdf4ce">
                      <path d="M 50 98.5 C 43.45188522338867 98.5 37.10042953491211 97.21787261962891 31.12207221984863 94.68923950195312 C 25.34691429138184 92.24655914306641 20.15997123718262 88.74931335449219 15.70532894134521 84.29468536376953 C 11.2506856918335 79.84004211425781 7.753442764282227 74.65309906005859 5.310757160186768 68.8779296875 C 2.782128572463989 62.89957046508789 1.5 56.54811477661133 1.5 50 C 1.5 43.45188522338867 2.782128572463989 37.10042953491211 5.310757160186768 31.12207221984863 C 7.753442764282227 25.34691429138184 11.2506856918335 20.15997123718262 15.70532894134521 15.70532894134521 C 20.15997123718262 11.2506856918335 25.34691429138184 7.753442764282227 31.12207221984863 5.310757160186768 C 37.10042953491211 2.782128572463989 43.45188522338867 1.5 50 1.5 C 56.54811477661133 1.5 62.89957046508789 2.782128572463989 68.8779296875 5.310757160186768 C 74.65309906005859 7.753442764282227 79.84004211425781 11.2506856918335 84.29468536376953 15.70532894134521 C 88.74931335449219 20.15997123718262 92.24655914306641 25.34691429138184 94.68923950195312 31.12207221984863 C 97.21787261962891 37.10042953491211 98.5 43.45188522338867 98.5 50 C 98.5 56.54811477661133 97.21787261962891 62.89957046508789 94.68923950195312 68.8779296875 C 92.24655914306641 74.65309906005859 88.74931335449219 79.84004211425781 84.29468536376953 84.29468536376953 C 79.84004211425781 88.74931335449219 74.65309906005859 92.24655914306641 68.8779296875 94.68923950195312 C 62.89957046508789 97.21787261962891 56.54811477661133 98.5 50 98.5 Z" stroke="none"/>
                      <path d="M 50 3 C 43.65372467041016 3 37.49886322021484 4.242263793945312 31.70639801025391 6.6922607421875 C 26.11003112792969 9.059326171875 21.08335113525391 12.44861602783203 16.76598358154297 16.76598358154297 C 12.44861602783203 21.08335113525391 9.059326171875 26.11003112792969 6.6922607421875 31.70639801025391 C 4.242263793945312 37.49886322021484 3 43.65372467041016 3 50 C 3 56.34627532958984 4.242263793945312 62.50113677978516 6.6922607421875 68.29360198974609 C 9.059326171875 73.88996887207031 12.44861602783203 78.91666412353516 16.76598358154297 83.23401641845703 C 21.08335113525391 87.55138397216797 26.11003112792969 90.940673828125 31.70639801025391 93.3077392578125 C 37.49886322021484 95.75773620605469 43.65372467041016 97 50 97 C 56.34627532958984 97 62.50113677978516 95.75773620605469 68.29360198974609 93.3077392578125 C 73.88996887207031 90.940673828125 78.91666412353516 87.55138397216797 83.23401641845703 83.23401641845703 C 87.55138397216797 78.91666412353516 90.940673828125 73.88996887207031 93.3077392578125 68.29360198974609 C 95.75773620605469 62.50113677978516 97 56.34627532958984 97 50 C 97 43.65372467041016 95.75773620605469 37.49886322021484 93.3077392578125 31.70639801025391 C 90.940673828125 26.11003112792969 87.55138397216797 21.08335113525391 83.23401641845703 16.76598358154297 C 78.91666412353516 12.44861602783203 73.88996887207031 9.059326171875 68.29360198974609 6.6922607421875 C 62.50113677978516 4.242263793945312 56.34627532958984 3 50 3 M 50 0 C 77.61424255371094 0 100 22.38577270507812 100 50 C 100 77.61424255371094 77.61424255371094 100 50 100 C 22.38577270507812 100 0 77.61424255371094 0 50 C 0 22.38577270507812 22.38577270507812 0 50 0 Z" stroke="none" fill="#866d08"/>
                    </g>
                  </g>
                </g>
              </g>
            </g>
          </g>
        </g>
      </g>
    </g>
    <g id="plan_9186408" transform="translate(305.992 955.689)">
      <g id="Grupo_1225695" data-name="Grupo 1225695" transform="translate(47.451 13.9)">
        <g id="Grupo_1225693" data-name="Grupo 1225693" transform="translate(7.564 3.704)">
          <path id="Trazado_1213551" data-name="Trazado 1213551" d="M141.425,78.412h35.211a1.109,1.109,0,0,1,.812.336L183.9,85.2a1.11,1.11,0,0,1,.336.812v48.226a1.151,1.151,0,0,1-1.149,1.149h-41.66a1.151,1.151,0,0,1-1.149-1.149V79.561A1.151,1.151,0,0,1,141.425,78.412Z" transform="translate(-140.276 -78.412)" fill="#eceff1" fill-rule="evenodd"/>
          <path id="Trazado_1213552" data-name="Trazado 1213552" d="M141.425,78.412h2.1v56.972h-2.1a1.151,1.151,0,0,1-1.149-1.149V79.561A1.151,1.151,0,0,1,141.425,78.412Z" transform="translate(-140.276 -78.412)" fill="#d1d1d6" fill-rule="evenodd"/>
          <path id="Trazado_1213553" data-name="Trazado 1213553" d="M410.273,79.142a1.156,1.156,0,0,1,.336.237l6.449,6.449a1.153,1.153,0,0,1,.237.336h-6.448a.575.575,0,0,1-.574-.574Z" transform="translate(-373.438 -79.042)" fill="#a79ba7" fill-rule="evenodd"/>
          <path id="Trazado_1213554" data-name="Trazado 1213554" d="M182.083,425.642h4.143a.821.821,0,0,1,.819.819V430.6a.821.821,0,0,1-.819.819h-4.143a.821.821,0,0,1-.819-.819v-4.143A.821.821,0,0,1,182.083,425.642Z" transform="translate(-175.672 -378.27)" fill="#fe646f" fill-rule="evenodd"/>
          <path id="Trazado_1213555" data-name="Trazado 1213555" d="M186.1,425.642h.13a.821.821,0,0,1,.819.819V430.6a.821.821,0,0,1-.819.819h-4.143a.821.821,0,0,1-.819-.819v-.163h4.013a.821.821,0,0,0,.819-.819Z" transform="translate(-175.672 -378.27)" fill="#fd4755" fill-rule="evenodd"/>
          <path id="Trazado_1213556" data-name="Trazado 1213556" d="M182.083,360.6h4.143a.821.821,0,0,1,.819.819v4.143a.821.821,0,0,1-.819.819h-4.143a.821.821,0,0,1-.819-.819v-4.143A.821.821,0,0,1,182.083,360.6Z" transform="translate(-175.672 -322.104)" fill="#ffe177" fill-rule="evenodd"/>
          <path id="Trazado_1213557" data-name="Trazado 1213557" d="M186.1,360.6h.13a.821.821,0,0,1,.819.819v4.143a.821.821,0,0,1-.819.819h-4.143a.821.821,0,0,1-.819-.819V365.4h4.013a.821.821,0,0,0,.819-.819Z" transform="translate(-175.672 -322.104)" fill="#ffd064" fill-rule="evenodd"/>
          <path id="Trazado_1213558" data-name="Trazado 1213558" d="M182.083,295.565h4.143a.821.821,0,0,1,.819.819v4.143a.821.821,0,0,1-.819.819h-4.143a.821.821,0,0,1-.819-.819v-4.143A.821.821,0,0,1,182.083,295.565Z" transform="translate(-175.672 -265.939)" fill="#8ac9fe" fill-rule="evenodd"/>
          <path id="Trazado_1213559" data-name="Trazado 1213559" d="M186.1,295.565h.13a.821.821,0,0,1,.819.819v4.143a.821.821,0,0,1-.819.819h-4.143a.821.821,0,0,1-.819-.819v-.163h4.013a.821.821,0,0,0,.819-.819Z" transform="translate(-175.672 -265.939)" fill="#60b7ff" fill-rule="evenodd"/>
        </g>
        <g id="Grupo_1225694" data-name="Grupo 1225694" transform="translate(0)">
          <path id="Trazado_1213560" data-name="Trazado 1213560" d="M99.577,53.3a10.5,10.5,0,0,1,3.073,1.274l2-.887L107,56.044l-.887,2a10.493,10.493,0,0,1,1.274,3.074l2.038.784v3.329l-2.038.784a10.5,10.5,0,0,1-1.274,3.073l.887,2-2.354,2.354-2-.887a10.5,10.5,0,0,1-3.074,1.274l-.784,2.038H95.464l-.784-2.038a10.5,10.5,0,0,1-3.073-1.274l-2,.887-2.354-2.354.887-2a10.5,10.5,0,0,1-1.274-3.074l-2.038-.784V61.9l2.038-.784a10.494,10.494,0,0,1,1.274-3.074l-.887-2,2.354-2.354,2,.887A10.494,10.494,0,0,1,94.679,53.3l.784-2.038h3.329Z" transform="translate(-84.83 -51.265)" fill="#ffe177" fill-rule="evenodd"/>
          <path id="Trazado_1213561" data-name="Trazado 1213561" d="M119.909,72.547l-2,.887-.308-.307,1.872-.832Q119.69,72.427,119.909,72.547ZM127.88,53.3a10.5,10.5,0,0,1,3.073,1.274l-.568.252A13.841,13.841,0,0,0,126.88,53.3l-.784-2.038h1Zm3.074,19.247a10.5,10.5,0,0,1-3.074,1.274l-.784,2.038h-1l.784-2.038a13.837,13.837,0,0,0,3.506-1.526ZM117.6,54l.308-.308,2,.887q-.219.121-.432.252Zm14.654,0,.692-.308,2.354,2.354-.887,2a10.492,10.492,0,0,1,1.274,3.074l2.038.784v3.329l-2.038.784a10.5,10.5,0,0,1-1.274,3.073l.887,2-2.354,2.354-.692-.308,2.046-2.046-.887-2a10.5,10.5,0,0,0,1.274-3.073l2.038-.784V61.9l-2.038-.784a10.5,10.5,0,0,0-1.274-3.074l.887-2Z" transform="translate(-113.133 -51.263)" fill="#ffd064" fill-rule="evenodd"/>
          <ellipse id="Elipse_12945" data-name="Elipse 12945" cx="5.805" cy="5.805" rx="5.805" ry="5.805" transform="translate(4.72 9.152) rotate(-22.514)" fill="#eceff1"/>
          <path id="Trazado_1213562" data-name="Trazado 1213562" d="M138.23,98.858a5.8,5.8,0,0,0,0,11.61q.233,0,.462-.018a5.805,5.805,0,0,1,0-11.573q-.229-.018-.462-.018Z" transform="translate(-125.932 -92.365)" fill="#d1d1d6" fill-rule="evenodd"/>
        </g>
      </g>
      <path id="Trazado_1213563" data-name="Trazado 1213563" d="M95.959,36.427a1.091,1.091,0,0,1-1.091,1.092H80.341a1.092,1.092,0,0,1,0-2.183H94.868A1.091,1.091,0,0,1,95.959,36.427Zm0,3.812a1.091,1.091,0,0,1-1.091,1.091H80.341a1.091,1.091,0,0,1,0-2.183H94.868A1.091,1.091,0,0,1,95.959,40.24Zm0-7.625a1.091,1.091,0,0,1-1.091,1.092H80.341a1.091,1.091,0,0,1,0-2.183H94.868A1.091,1.091,0,0,1,95.959,32.615Zm0-3.812a1.091,1.091,0,0,1-1.091,1.092H80.341a1.092,1.092,0,0,1,0-2.183H94.868A1.091,1.091,0,0,1,95.959,28.8Zm-31.2,40.331H62.224V66.595h2.539Zm1.092-4.722H61.133A1.091,1.091,0,0,0,60.041,65.5v4.722a1.092,1.092,0,0,0,1.092,1.092h4.722a1.091,1.091,0,0,0,1.091-1.092V65.5A1.091,1.091,0,0,0,65.855,64.412Zm28.084,5.251a1.091,1.091,0,0,1-1.092,1.091H71.057a1.091,1.091,0,1,1,0-2.183h21.79A1.092,1.092,0,0,1,93.939,69.663Zm0-3.6a1.092,1.092,0,0,1-1.092,1.092H71.057a1.091,1.091,0,1,1,0-2.183h21.79A1.091,1.091,0,0,1,93.939,66.066Zm0-8.873a1.091,1.091,0,0,1-1.092,1.091H71.057a1.091,1.091,0,1,1,0-2.183h21.79A1.092,1.092,0,0,1,93.939,57.193Zm0,3.6a1.091,1.091,0,0,1-1.092,1.091H71.057a1.091,1.091,0,1,1,0-2.183h21.79A1.092,1.092,0,0,1,93.939,60.79Zm0-12.47a1.092,1.092,0,0,1-1.092,1.092H71.057a1.092,1.092,0,0,1,0-2.183h21.79A1.092,1.092,0,0,1,93.939,48.32Zm0,3.6a1.092,1.092,0,0,1-1.092,1.092H71.057a1.091,1.091,0,1,1,0-2.183h21.79A1.091,1.091,0,0,1,93.939,51.917ZM64.763,60.261H62.224V57.722h2.539Zm1.092-4.722H61.133a1.092,1.092,0,0,0-1.092,1.092v4.722a1.091,1.091,0,0,0,1.092,1.091h4.722a1.091,1.091,0,0,0,1.091-1.091V56.631A1.091,1.091,0,0,0,65.855,55.539Zm-1.092-4.151H62.224V48.849h2.539Zm1.092-4.721H61.133a1.091,1.091,0,0,0-1.092,1.091v4.722a1.091,1.091,0,0,0,1.092,1.091h4.722a1.091,1.091,0,0,0,1.091-1.091V47.757A1.091,1.091,0,0,0,65.855,46.666ZM59.745,21.483A4.714,4.714,0,1,1,55.032,26.2a4.719,4.719,0,0,1,4.713-4.714Zm0,11.611a6.9,6.9,0,1,0-6.9-6.9A6.905,6.905,0,0,0,59.745,33.094ZM48.539,25.282v1.83l1.338.515a1.091,1.091,0,0,1,.67.765,9.38,9.38,0,0,0,1.142,2.755,1.092,1.092,0,0,1,.068,1.015l-.582,1.311,1.294,1.294,1.313-.582a1.089,1.089,0,0,1,1.015.068A9.393,9.393,0,0,0,57.55,35.4a1.091,1.091,0,0,1,.765.67l.516,1.338H60.66l.516-1.338a1.093,1.093,0,0,1,.765-.67A9.387,9.387,0,0,0,64.7,34.254a1.091,1.091,0,0,1,1.015-.069l1.311.582,1.294-1.294-.582-1.312a1.09,1.09,0,0,1,.068-1.015,9.4,9.4,0,0,0,1.142-2.754,1.09,1.09,0,0,1,.669-.766l1.339-.516V25.282l-1.338-.515a1.093,1.093,0,0,1-.67-.766A9.385,9.385,0,0,0,67.8,21.246a1.091,1.091,0,0,1-.068-1.015l.582-1.312-1.294-1.294-1.312.583a1.094,1.094,0,0,1-1.015-.068A9.378,9.378,0,0,0,61.942,17a1.091,1.091,0,0,1-.766-.67L60.66,14.99H58.831l-.516,1.339a1.091,1.091,0,0,1-.766.67A9.375,9.375,0,0,0,54.8,18.141a1.094,1.094,0,0,1-1.015.068l-1.312-.583L51.175,18.92l.582,1.312a1.09,1.09,0,0,1-.068,1.015A9.393,9.393,0,0,0,50.547,24a1.092,1.092,0,0,1-.67.765Zm1,6.5-.66,1.487a1.091,1.091,0,0,0,.225,1.215l2.354,2.354a1.091,1.091,0,0,0,1.215.226l1.488-.661a11.547,11.547,0,0,0,2.321.962l.584,1.519a1.091,1.091,0,0,0,1.018.7H61.41a1.09,1.09,0,0,0,1.018-.7l.584-1.518a11.537,11.537,0,0,0,2.322-.963l1.487.661a1.093,1.093,0,0,0,1.215-.226l2.354-2.354a1.091,1.091,0,0,0,.225-1.215l-.66-1.488a11.554,11.554,0,0,0,.962-2.321l1.518-.584a1.091,1.091,0,0,0,.7-1.018V24.533a1.09,1.09,0,0,0-.7-1.018l-1.517-.584a11.583,11.583,0,0,0-.963-2.322l.66-1.487a1.09,1.09,0,0,0-.225-1.214l-2.354-2.354a1.092,1.092,0,0,0-1.215-.225l-1.488.661a11.6,11.6,0,0,0-2.321-.963l-.585-1.518a1.09,1.09,0,0,0-1.018-.7H58.081a1.091,1.091,0,0,0-1.018.7l-.584,1.518a11.578,11.578,0,0,0-2.321.963l-1.488-.661a1.092,1.092,0,0,0-1.215.225L49.1,17.907a1.09,1.09,0,0,0-.225,1.214l.66,1.488a11.545,11.545,0,0,0-.962,2.321l-1.518.584a1.09,1.09,0,0,0-.7,1.018v3.329a1.091,1.091,0,0,0,.7,1.018l1.517.584a11.557,11.557,0,0,0,.963,2.322ZM45.9,34.242a16.017,16.017,0,0,1,22.216-21.7l-.076,0a1.092,1.092,0,0,0,.038,2.183h.04l3.154-.113a1.092,1.092,0,0,0,1.011-1.39l-.866-3.035A1.091,1.091,0,0,0,69.3,10.7,18.2,18.2,0,0,0,44.012,35.34a1.092,1.092,0,0,0,1.887-1.1ZM97.82,73.483a.059.059,0,0,0,.057-.057V25.817H92.42a1.668,1.668,0,0,1-1.666-1.666V18.695H76.327a18.2,18.2,0,0,1-18.487,25.6q-.878-.092-1.737-.267v29.4a.059.059,0,0,0,.057.057H97.82ZM92.937,20.238l3.4,3.4h-3.4ZM99.4,23.617l-6.449-6.448a2.195,2.195,0,0,0-1.584-.656H74.536a1.092,1.092,0,0,0-.943,1.641,16.017,16.017,0,0,1-22.217,21.7l.077,0a1.091,1.091,0,1,0-.078-2.181l-3.154.113a1.092,1.092,0,0,0-1.011,1.39l.866,3.035a1.091,1.091,0,0,0,2.117-.518,18.041,18.041,0,0,0,3.726,1.751V73.426a2.243,2.243,0,0,0,2.24,2.24H97.82a2.243,2.243,0,0,0,2.24-2.24V25.2a2.2,2.2,0,0,0-.656-1.584Z" transform="translate(0 0)" fill-rule="evenodd"/>
    </g>
  </g>
</svg>
