<svg xmlns="http://www.w3.org/2000/svg" xmlns:xlink="http://www.w3.org/1999/xlink" width="118" height="118" viewBox="0 0 118 118">
  <defs>
    <filter id="Trazado_982547" x="0" y="0" width="118" height="118" filterUnits="userSpaceOnUse">
      <feOffset dy="3" input="SourceAlpha"/>
      <feGaussianBlur stdDeviation="3" result="blur"/>
      <feFlood flood-opacity="0.161"/>
      <feComposite operator="in" in2="blur"/>
      <feComposite in="SourceGraphic"/>
    </filter>
  </defs>
  <g id="Grupo_1225700" data-name="Grupo 1225700" transform="translate(-1160.888 -942.048)">
    <g id="Grupo_1208612" data-name="Grupo 1208612" transform="translate(1169.888 948.048)">
      <g id="Grupo_1174813" data-name="Grupo 1174813">
        <g id="Grupo_1201680" data-name="Grupo 1201680">
          <g id="Grupo_1201330" data-name="Grupo 1201330">
            <g id="Grupo_1172010" data-name="Grupo 1172010">
              <g id="Grupo_1171046" data-name="Grupo 1171046">
                <g id="Grupo_1148525" data-name="Grupo 1148525">
                  <g transform="matrix(1, 0, 0, 1, -9, -6)" filter="url(#Trazado_982547)">
                    <g id="Trazado_982547-2" data-name="Trazado 982547" transform="translate(9 6)" fill="#fdf4ce">
                      <path d="M 50 98.5 C 43.45188522338867 98.5 37.10042953491211 97.21787261962891 31.12207221984863 94.68923950195312 C 25.34691429138184 92.24655914306641 20.15997123718262 88.74931335449219 15.70532894134521 84.29468536376953 C 11.2506856918335 79.84004211425781 7.753442764282227 74.65309906005859 5.310757160186768 68.8779296875 C 2.782128572463989 62.89957046508789 1.5 56.54811477661133 1.5 50 C 1.5 43.45188522338867 2.782128572463989 37.10042953491211 5.310757160186768 31.12207221984863 C 7.753442764282227 25.34691429138184 11.2506856918335 20.15997123718262 15.70532894134521 15.70532894134521 C 20.15997123718262 11.2506856918335 25.34691429138184 7.753442764282227 31.12207221984863 5.310757160186768 C 37.10042953491211 2.782128572463989 43.45188522338867 1.5 50 1.5 C 56.54811477661133 1.5 62.89957046508789 2.782128572463989 68.8779296875 5.310757160186768 C 74.65309906005859 7.753442764282227 79.84004211425781 11.2506856918335 84.29468536376953 15.70532894134521 C 88.74931335449219 20.15997123718262 92.24655914306641 25.34691429138184 94.68923950195312 31.12207221984863 C 97.21787261962891 37.10042953491211 98.5 43.45188522338867 98.5 50 C 98.5 56.54811477661133 97.21787261962891 62.89957046508789 94.68923950195312 68.8779296875 C 92.24655914306641 74.65309906005859 88.74931335449219 79.84004211425781 84.29468536376953 84.29468536376953 C 79.84004211425781 88.74931335449219 74.65309906005859 92.24655914306641 68.8779296875 94.68923950195312 C 62.89957046508789 97.21787261962891 56.54811477661133 98.5 50 98.5 Z" stroke="none"/>
                      <path d="M 50 3 C 43.65372467041016 3 37.49886322021484 4.242263793945312 31.70639801025391 6.6922607421875 C 26.11003112792969 9.059326171875 21.08335113525391 12.44861602783203 16.76598358154297 16.76598358154297 C 12.44861602783203 21.08335113525391 9.059326171875 26.11003112792969 6.6922607421875 31.70639801025391 C 4.242263793945312 37.49886322021484 3 43.65372467041016 3 50 C 3 56.34627532958984 4.242263793945312 62.50113677978516 6.6922607421875 68.29360198974609 C 9.059326171875 73.88996887207031 12.44861602783203 78.91666412353516 16.76598358154297 83.23401641845703 C 21.08335113525391 87.55138397216797 26.11003112792969 90.940673828125 31.70639801025391 93.3077392578125 C 37.49886322021484 95.75773620605469 43.65372467041016 97 50 97 C 56.34627532958984 97 62.50113677978516 95.75773620605469 68.29360198974609 93.3077392578125 C 73.88996887207031 90.940673828125 78.91666412353516 87.55138397216797 83.23401641845703 83.23401641845703 C 87.55138397216797 78.91666412353516 90.940673828125 73.88996887207031 93.3077392578125 68.29360198974609 C 95.75773620605469 62.50113677978516 97 56.34627532958984 97 50 C 97 43.65372467041016 95.75773620605469 37.49886322021484 93.3077392578125 31.70639801025391 C 90.940673828125 26.11003112792969 87.55138397216797 21.08335113525391 83.23401641845703 16.76598358154297 C 78.91666412353516 12.44861602783203 73.88996887207031 9.059326171875 68.29360198974609 6.6922607421875 C 62.50113677978516 4.242263793945312 56.34627532958984 3 50 3 M 50 0 C 77.61424255371094 0 100 22.38577270507812 100 50 C 100 77.61424255371094 77.61424255371094 100 50 100 C 22.38577270507812 100 0 77.61424255371094 0 50 C 0 22.38577270507812 22.38577270507812 0 50 0 Z" stroke="none" fill="#866d08"/>
                    </g>
                  </g>
                </g>
              </g>
            </g>
          </g>
        </g>
      </g>
    </g>
    <g id="optimization_13340029" transform="translate(1179.845 945.319)">
      <path id="Trazado_1213592" data-name="Trazado 1213592" d="M257.718,61.912a9.036,9.036,0,1,1,9.033-9.033,9.045,9.045,0,0,1-9.033,9.033Zm16.061-10.864-3.189-.727a1.085,1.085,0,0,1-.808-.773A12.289,12.289,0,0,0,268.6,46.7a1.094,1.094,0,0,1,.023-1.116l1.743-2.774c.127-.2.273-.546.154-.669l-2.07-2.066c-.131-.131-.5.042-.669.15l-2.77,1.746a1.085,1.085,0,0,1-1.116.023,12.458,12.458,0,0,0-2.854-1.181,1.08,1.08,0,0,1-.773-.808l-.727-3.193c-.046-.2-.181-.581-.365-.581h-2.92c-.188,0-.323.381-.369.581L255.16,40a1.08,1.08,0,0,1-.773.808,12.458,12.458,0,0,0-2.851,1.181,1.085,1.085,0,0,1-1.116-.023l-2.774-1.743c-.177-.112-.535-.285-.669-.154l-2.066,2.066c-.131.135.042.492.15.666l1.746,2.777a1.085,1.085,0,0,1,.023,1.116,12.454,12.454,0,0,0-1.181,2.851,1.086,1.086,0,0,1-.808.773l-3.193.727c-.2.046-.581.181-.581.369v2.92c0,.185.385.323.585.369l3.185.723a1.093,1.093,0,0,1,.808.769,12.584,12.584,0,0,0,1.185,2.858,1.085,1.085,0,0,1-.023,1.116l-1.743,2.77c-.112.173-.285.539-.154.669l2.066,2.07c.123.119.465-.027.669-.154l2.774-1.743a1.086,1.086,0,0,1,.581-.169,1.06,1.06,0,0,1,.535.142,12.531,12.531,0,0,0,2.854,1.185,1.087,1.087,0,0,1,.769.808l.727,3.189c.046.2.181.581.369.581h2.92c.185,0,.319-.381.365-.581l.727-3.189a1.086,1.086,0,0,1,.773-.808,12.344,12.344,0,0,0,2.854-1.181,1.086,1.086,0,0,1,1.116.027l2.77,1.739c.173.108.539.281.669.154l2.07-2.07c.127-.131-.046-.5-.154-.673l-1.746-2.766a1.085,1.085,0,0,1-.023-1.116,12.629,12.629,0,0,0,1.185-2.858,1.093,1.093,0,0,1,.808-.769l3.189-.723c.2-.046.581-.185.581-.369v-2.92c0-.189-.381-.323-.581-.369Z" transform="translate(-202.833 -13.842)" fill="#7b849b"/>
      <path id="Trazado_1213593" data-name="Trazado 1213593" d="M320.02,108.315a6.863,6.863,0,1,0,6.859,6.867A6.876,6.876,0,0,0,320.02,108.315Z" transform="translate(-265.135 -76.145)" fill="#e8ecf9"/>
      <path id="Trazado_1213594" data-name="Trazado 1213594" d="M70.27,160.168a1.087,1.087,0,0,1,1.539,0l2,2.008c.015.015.027.027.065.012a.047.047,0,0,0,.035-.054v-7.752a.063.063,0,0,0-.058-.062H66.1c-.027,0-.042,0-.058.038a.05.05,0,0,0,.012.065l1.977,1.974a1.09,1.09,0,0,1-.065,1.6c-4.436,3.762-8.506,3.939-12.118.535a8.053,8.053,0,0,0,5.613,4.7c2.985.666,6.194-.45,8.806-3.062Z" transform="translate(-42.752 -115.907)" fill="#66f2bf"/>
      <path id="Trazado_1213595" data-name="Trazado 1213595" d="M77.508,456.418c12.653-.012,25.482-.012,38.143,0a5.938,5.938,0,0,0-5.863-4.232H83.371A5.933,5.933,0,0,0,77.508,456.418Z" transform="translate(-61.47 -373.348)" fill="#475066"/>
      <path id="Trazado_1213596" data-name="Trazado 1213596" d="M76.658,292.227h4.9v6.213h-4.9Z" transform="translate(-60.735 -235.097)" fill="#fd7a6e"/>
      <path id="Trazado_1213597" data-name="Trazado 1213597" d="M158.862,256.794h4.9v11.022h-4.9Z" transform="translate(-131.783 -204.473)" fill="#66f2bf"/>
      <path id="Trazado_1213598" data-name="Trazado 1213598" d="M243.495,221.361h-2.427v15.83h4.9v-9.567a2.354,2.354,0,0,1-.527-.4l-2.07-2.07a2.606,2.606,0,0,1-.146-3.362Z" transform="translate(-202.832 -173.849)" fill="#ffee93"/>
      <path id="Trazado_1213599" data-name="Trazado 1213599" d="M327.328,264.481a2.605,2.605,0,0,1-2.489-2.274l-.585-2.57c-.323-.108-.642-.223-.954-.35V269.97h4.9v-5.49h-.873Z" transform="translate(-273.905 -206.628)" fill="#6ac9eb"/>
      <path id="Trazado_1213600" data-name="Trazado 1213600" d="M48,152.6a1.512,1.512,0,0,1-1.512,1.512H40.26a1.512,1.512,0,0,1-1.512-1.512V140.255a1.515,1.515,0,0,1,1.512-1.516h6.224A1.515,1.515,0,0,1,48,140.255Zm-11.156,0a1.513,1.513,0,0,1-1.516,1.512H29.107a1.515,1.515,0,0,1-1.516-1.512v-7.532a1.519,1.519,0,0,1,1.516-1.516h6.217a1.516,1.516,0,0,1,1.516,1.516ZM24.683,131.411a2.19,2.19,0,0,1,.719-2.658,2.146,2.146,0,0,1,2.731.585c2.631,2.681,5.313,2.828,8.59.419l-1.112-1.112a2.232,2.232,0,0,1,1.581-3.812h7.752a2.234,2.234,0,0,1,2.231,2.235v7.752a2.232,2.232,0,0,1-3.812,1.577L42.1,135.131a11.938,11.938,0,0,1-7.817,3.147,9.915,9.915,0,0,1-2.2-.242,10.259,10.259,0,0,1-7.4-6.624ZM73.255,141.6l-.585,2.57a2.629,2.629,0,0,1-2.358,2.27V152.6a1.512,1.512,0,0,1-1.512,1.512H62.576a1.515,1.515,0,0,1-1.512-1.512V141.332l-1.25.789a3.94,3.94,0,0,1-.662.331V152.6a1.515,1.515,0,0,1-1.516,1.512H51.424A1.516,1.516,0,0,1,49.9,152.6v-17.15a1.519,1.519,0,0,1,1.52-1.516h4.035a14.658,14.658,0,0,1-.708-1.77l-2.574-.585a2.615,2.615,0,0,1-2.274-2.489v-2.92a2.6,2.6,0,0,1,2.274-2.489l2.574-.585c.042-.127.085-.25.131-.377H24.322a1.926,1.926,0,0,0-1.92,1.923v31.545a1.923,1.923,0,0,0,1.92,1.923H73.574a1.925,1.925,0,0,0,1.927-1.923V140.779l-.1-.065a14.494,14.494,0,0,1-2.147.889Z" transform="translate(-13.842 -88.592)" fill="#a8e3ed"/>
      <path id="Trazado_1213601" data-name="Trazado 1213601" d="M164.271,399.518a14.761,14.761,0,0,1-1.723,4.974h15.061a14.791,14.791,0,0,1-1.723-4.974H164.272Z" transform="translate(-134.969 -327.828)" fill="#7b849b"/>
      <g id="Grupo_1225699" data-name="Grupo 1225699" transform="translate(6.386 20.214)">
        <path id="Trazado_1213602" data-name="Trazado 1213602" d="M149.921,253.973h-4.9V242.951h4.9Zm.662-13.2h-6.224a1.515,1.515,0,0,0-1.512,1.516v12.341a1.512,1.512,0,0,0,1.512,1.512h6.224a1.512,1.512,0,0,0,1.512-1.512V242.294A1.515,1.515,0,0,0,150.582,240.778Z" transform="translate(-124.327 -210.845)" fill="#030403"/>
        <path id="Trazado_1213603" data-name="Trazado 1213603" d="M67.716,284.6h-4.9v-6.213h4.9Zm.658-8.386H62.157a1.519,1.519,0,0,0-1.516,1.516v7.532a1.515,1.515,0,0,0,1.516,1.512h6.217a1.513,1.513,0,0,0,1.516-1.512v-7.532A1.516,1.516,0,0,0,68.373,276.211Z" transform="translate(-53.278 -241.469)" fill="#030403"/>
        <path id="Trazado_1213604" data-name="Trazado 1213604" d="M71.527,40.5c0,.185-.381.323-.581.369l-3.189.723a1.093,1.093,0,0,0-.808.769,12.624,12.624,0,0,1-1.185,2.858,1.085,1.085,0,0,0,.023,1.116L67.534,49.1c.108.177.281.542.154.673l-2.07,2.07c-.131.127-.5-.046-.669-.154l-2.77-1.739a1.086,1.086,0,0,0-1.116-.027A12.342,12.342,0,0,1,58.209,51.1a1.086,1.086,0,0,0-.773.808L56.708,55.1c-.046.2-.181.581-.365.581h-2.92c-.189,0-.323-.381-.369-.581l-.727-3.189a1.087,1.087,0,0,0-.769-.808A12.531,12.531,0,0,1,48.7,49.916a1.062,1.062,0,0,0-.535-.142,1.086,1.086,0,0,0-.581.169l-2.774,1.743c-.2.127-.546.273-.669.154l-2.066-2.07c-.131-.131.042-.5.154-.669l1.743-2.77A1.085,1.085,0,0,0,44,45.215a12.588,12.588,0,0,1-1.185-2.858,1.093,1.093,0,0,0-.808-.769l-3.185-.723c-.2-.046-.585-.185-.585-.369v-2.92c0-.189.381-.323.581-.369l3.193-.727a1.085,1.085,0,0,0,.808-.773A12.458,12.458,0,0,1,44,32.855a1.085,1.085,0,0,0-.023-1.116l-1.746-2.777c-.108-.173-.281-.531-.15-.666l2.066-2.066c.135-.131.492.042.669.154l2.774,1.743a1.085,1.085,0,0,0,1.116.023,12.455,12.455,0,0,1,2.851-1.181,1.08,1.08,0,0,0,.773-.808l.727-3.193c.046-.2.181-.581.369-.581h2.92c.185,0,.319.381.365.581l.727,3.193a1.08,1.08,0,0,0,.773.808,12.456,12.456,0,0,1,2.854,1.181,1.085,1.085,0,0,0,1.116-.023l2.77-1.746c.173-.108.539-.281.669-.15l2.07,2.066c.119.123-.027.469-.154.669L65.791,31.74a1.094,1.094,0,0,0-.023,1.116,12.288,12.288,0,0,1,1.181,2.851,1.086,1.086,0,0,0,.808.773l3.189.727c.2.046.581.181.581.369V40.5ZM49.4,63.342V52.659c.312.127.631.242.954.35l.585,2.57a2.606,2.606,0,0,0,2.489,2.274H54.3v5.49H49.4ZM40.539,51.305l2.07,2.07a2.35,2.35,0,0,0,.527.4v9.567h-4.9V47.512h2.427l-.269.431a2.606,2.606,0,0,0,.146,3.362Zm21.12,16.288a1.925,1.925,0,0,1-1.927,1.923H10.479a1.923,1.923,0,0,1-1.92-1.923V36.048a1.926,1.926,0,0,1,1.92-1.923H41.04c-.046.127-.088.25-.131.377l-2.574.585a2.6,2.6,0,0,0-2.274,2.489V40.5a2.615,2.615,0,0,0,2.274,2.489l2.574.585a14.623,14.623,0,0,0,.708,1.77H37.581a1.519,1.519,0,0,0-1.52,1.516V64a1.516,1.516,0,0,0,1.52,1.512h6.213A1.515,1.515,0,0,0,45.31,64V53.859a3.936,3.936,0,0,0,.662-.331l1.25-.789V64a1.515,1.515,0,0,0,1.512,1.512h6.224A1.512,1.512,0,0,0,56.47,64V57.849a2.629,2.629,0,0,0,2.358-2.27l.585-2.57a14.491,14.491,0,0,0,2.147-.889l.1.065V67.593Zm-34.08,9.071A14.761,14.761,0,0,0,29.3,71.69H40.916a14.791,14.791,0,0,0,1.723,4.974H27.579Zm20.739,2.174a5.939,5.939,0,0,1,5.863,4.232c-12.66-.012-25.49-.012-38.143,0A5.933,5.933,0,0,1,21.9,78.838ZM71.427,35.086l-2.57-.585a14.619,14.619,0,0,0-.889-2.143l1.408-2.235a2.605,2.605,0,0,0-.154-3.362L67.153,24.7a2.605,2.605,0,0,0-3.362-.154L61.559,25.95a14.661,14.661,0,0,0-2.147-.889l-.585-2.574a2.609,2.609,0,0,0-2.485-2.274h-2.92a2.609,2.609,0,0,0-2.489,2.274l-.585,2.574a14.461,14.461,0,0,0-2.143.889l-2.235-1.4a2.6,2.6,0,0,0-3.362.15l-2.066,2.066a2.6,2.6,0,0,0-.154,3.362l1.15,1.827H10.479a4.1,4.1,0,0,0-4.093,4.1V67.593a4.1,4.1,0,0,0,4.093,4.1H27.1a12.682,12.682,0,0,1-2.07,4.974H21.9a7.987,7.987,0,0,0-8.036,6.178,2,2,0,0,0,.208,1.808,2.282,2.282,0,0,0,1.9.592c12.695-.012,25.575-.012,38.274,0a2.273,2.273,0,0,0,1.9-.6,2.014,2.014,0,0,0,.208-1.8,7.985,7.985,0,0,0-8.036-6.186H45.19a12.914,12.914,0,0,1-2.07-4.974H59.732a4.1,4.1,0,0,0,4.1-4.1V53.552a2.6,2.6,0,0,0,3.32-.177l2.07-2.07a2.6,2.6,0,0,0,.15-3.362l-1.408-2.235a14.4,14.4,0,0,0,.889-2.139l2.577-.585A2.614,2.614,0,0,0,73.7,40.5v-2.92a2.606,2.606,0,0,0-2.274-2.489Z" transform="translate(-6.386 -20.214)" fill="#030403"/>
        <path id="Trazado_1213605" data-name="Trazado 1213605" d="M40.406,144.687c3.612,3.4,7.682,3.228,12.118-.535a1.09,1.09,0,0,0,.065-1.6l-1.977-1.974a.05.05,0,0,1-.012-.065c.015-.038.031-.038.058-.038H58.41a.063.063,0,0,1,.058.062v7.752a.047.047,0,0,1-.035.054c-.038.015-.05,0-.065-.012l-2-2.008a1.087,1.087,0,0,0-1.539,0c-2.612,2.612-5.82,3.728-8.806,3.062a8.053,8.053,0,0,1-5.613-4.7Zm7.34,7.063a11.938,11.938,0,0,0,7.817-3.147l1.266,1.266a2.232,2.232,0,0,0,3.812-1.577V140.54a2.234,2.234,0,0,0-2.231-2.235H50.658a2.233,2.233,0,0,0-1.581,3.812l1.112,1.112c-3.278,2.408-5.959,2.262-8.59-.419a2.146,2.146,0,0,0-2.731-.585,2.19,2.19,0,0,0-.719,2.658,10.258,10.258,0,0,0,7.4,6.624,9.915,9.915,0,0,0,2.2.242Z" transform="translate(-33.693 -122.279)" fill="#030403"/>
        <path id="Trazado_1213606" data-name="Trazado 1213606" d="M306.177,108.2a6.863,6.863,0,1,1,6.859-6.859A6.872,6.872,0,0,1,306.177,108.2Zm0-15.9a9.036,9.036,0,1,0,9.033,9.04,9.05,9.05,0,0,0-9.033-9.04Z" transform="translate(-257.678 -82.516)" fill="#030403"/>
      </g>
    </g>
  </g>
</svg>
